<svg width="272" height="236" viewBox="0 0 272 236" fill="none" xmlns="http://www.w3.org/2000/svg">
<path d="M110.995 7.74747C110.995 8.18451 110.837 8.58182 110.52 8.93939C110.242 9.29697 109.886 9.65455 109.45 10.0121C109.054 10.33 108.638 10.6279 108.202 10.9061C107.766 11.1842 107.409 11.4424 107.132 11.6808C106.458 12.237 105.646 12.5152 104.695 12.5152C104.061 12.5152 103.446 12.4357 102.852 12.2768C102.297 12.1178 101.703 12.0384 101.069 12.0384C100.791 12.0384 100.573 12.098 100.415 12.2172C99.8998 12.535 99.4044 12.7138 98.9289 12.7535C98.4534 12.7933 97.9382 12.8131 97.3834 12.8131C97.0664 12.8131 96.6305 12.6741 96.0758 12.396C95.5606 12.0781 95.2832 11.7603 95.2436 11.4424L95.6597 11.0253C95.2238 11.1842 94.9266 11.363 94.7681 11.5616C94.6096 11.7603 94.4907 11.9788 94.4114 12.2172C94.3718 12.4556 94.3322 12.7138 94.2925 12.9919C94.2529 13.27 94.1538 13.5481 93.9953 13.8263C93.7972 14.2236 93.4802 14.462 93.0443 14.5414C92.648 14.6209 92.2319 14.7997 91.796 15.0778C91.3998 15.3559 91.0431 15.8724 90.7261 16.6273C90.4091 17.3424 90.2506 18.5542 90.2506 20.2626C90.2506 21.0175 90.2902 21.7525 90.3695 22.4677C90.4487 23.1828 90.4883 23.898 90.4883 24.6131C90.4883 26.0434 90.3695 27.4737 90.1317 28.904C89.8939 30.2946 89.7751 31.7249 89.7751 33.1949C89.7751 34.069 89.6364 34.9034 89.359 35.698C89.1212 36.4926 89.0023 37.3269 89.0023 38.201C89.0023 39.4327 89.5175 40.2869 90.5478 40.7636C90.2704 40.8828 90.0524 41.2007 89.8939 41.7172C89.7354 42.1939 89.5967 42.7502 89.4779 43.3859C89.3986 43.9818 89.3392 44.5778 89.2995 45.1737C89.2995 45.73 89.2995 46.1273 89.2995 46.3657C89.2995 46.5246 89.2995 46.7431 89.2995 47.0212C89.2995 47.2993 89.3193 47.5973 89.359 47.9151C89.3986 48.1933 89.4382 48.4714 89.4779 48.7495C89.5175 48.9879 89.5967 49.1667 89.7156 49.2859C90.0326 49.6037 90.1911 50.001 90.1911 50.4778C90.1911 50.9545 90.1119 51.4313 89.9534 51.9081C89.7949 52.3451 89.7156 52.802 89.7156 53.2788C89.7156 55.2256 89.8345 57.1724 90.0723 59.1192C90.3496 61.0263 90.4883 62.9532 90.4883 64.9C90.4883 66.1714 90.3496 67.4428 90.0723 68.7141C89.8345 69.9855 89.7156 71.2569 89.7156 72.5283C89.7156 73.6805 89.9137 74.5943 90.31 75.2697C90.7063 75.9451 91.2413 76.4616 91.9149 76.8192C92.5886 77.1768 93.3613 77.4151 94.2331 77.5343C95.1049 77.6535 96.0163 77.7131 96.9674 77.7131C98.4732 77.7131 99.9592 77.5939 101.425 77.3556C102.931 77.0774 104.417 76.9384 105.883 76.9384C107.35 76.9384 108.479 77.3953 109.272 78.3091C110.104 79.2229 110.52 80.3949 110.52 81.8252C110.52 82.898 110.341 83.9111 109.985 84.8646C109.668 85.7784 109.192 86.5731 108.558 87.2485C107.964 87.9636 107.231 88.5199 106.359 88.9172C105.487 89.3145 104.496 89.5131 103.387 89.5131C102.594 89.5131 101.703 89.4138 100.712 89.2151C99.127 88.8973 97.542 88.6589 95.9569 88.5C94.3718 88.3808 92.7471 88.3212 91.0827 88.3212C89.6958 88.3212 88.3089 88.3411 86.9219 88.3808C85.535 88.4603 84.148 88.5 82.7611 88.5C81.0967 88.5 79.4522 88.4801 77.8275 88.4404C76.2028 88.4007 74.5583 88.3808 72.8939 88.3808C72.2995 88.3808 71.7249 88.2815 71.1702 88.0828C70.6154 87.8842 70.0606 87.7848 69.5058 87.7848C69.1096 87.7848 68.6538 87.8444 68.1387 87.9636C67.6235 88.1226 67.0688 88.2815 66.4744 88.4404C65.9196 88.5993 65.3252 88.7384 64.6911 88.8576C64.0571 89.0165 63.4231 89.096 62.789 89.096C61.3228 89.096 60.0548 88.7582 58.9848 88.0828C57.9149 87.4471 57.38 86.3148 57.38 84.6859C57.38 84.1694 57.4394 83.6727 57.5583 83.196C57.5979 82.8384 57.7762 82.3417 58.0932 81.7061C58.4499 81.0704 58.8462 80.4545 59.282 79.8586C59.7576 79.2229 60.2331 78.6865 60.7086 78.2495C61.2238 77.8125 61.6795 77.5939 62.0758 77.5939C62.3928 77.5939 62.69 77.6734 62.9674 77.8323C63.2844 77.9912 63.6212 78.1899 63.9779 78.4283C64.3741 78.6269 64.8298 78.8057 65.345 78.9646C65.8601 79.1236 66.4744 79.203 67.1876 79.203C68.6142 79.203 70.1002 79.064 71.6457 78.7859C73.1911 78.5077 74.5979 78.031 75.866 77.3556C77.1737 76.6404 78.2436 75.7266 79.0758 74.6141C79.9079 73.462 80.324 72.0316 80.324 70.3232C80.324 69.6875 80.2844 69.0717 80.2051 68.4758C80.1259 67.8401 80.0466 67.2044 79.9674 66.5687C79.7296 64.5027 79.5909 62.4168 79.5513 60.3111C79.5117 58.2054 79.4918 56.0997 79.4918 53.9939C79.4918 52.6034 79.6702 51.2724 80.0268 50.001C80.3834 48.6899 80.5618 47.3391 80.5618 45.9485C80.5618 45.1539 80.4231 44.399 80.1457 43.6838C79.8683 42.9687 79.7296 42.2337 79.7296 41.4788C79.7296 41.1212 79.7692 40.7636 79.8485 40.4061C79.9674 40.0485 80.0268 39.671 80.0268 39.2737C80.0268 38.3997 79.9277 37.5653 79.7296 36.7707C79.5711 35.9364 79.4918 35.102 79.4918 34.2677C79.4918 32.8771 79.6305 31.4865 79.9079 30.096C80.2249 28.7054 80.3834 27.3148 80.3834 25.9242C80.3834 25.0899 80.2844 24.2556 80.0862 23.4212C79.8881 22.5869 79.6702 21.7724 79.4324 20.9778C79.2343 20.1832 79.0361 19.3687 78.838 18.5343C78.6399 17.7 78.5408 16.8657 78.5408 16.0313C78.5408 15.5148 78.6002 14.9785 78.7191 14.4222C78.4813 13.866 78.1445 13.429 77.7086 13.1111C77.2727 12.7933 76.7972 12.4953 76.282 12.2172C75.7669 11.9391 75.2517 11.6609 74.7366 11.3828C74.2611 11.1047 73.8846 10.7074 73.6072 10.1909C73.2902 10.2306 73.0921 10.3896 73.0128 10.6677C72.9336 10.9061 72.8741 11.1842 72.8345 11.502C72.7949 11.7801 72.7156 12.0582 72.5967 12.3364C72.5175 12.5747 72.2995 12.7138 71.9429 12.7535C70.8333 12.8727 69.704 12.9721 68.5548 13.0515C67.4452 13.131 66.3357 13.1707 65.2261 13.1707C64.5921 13.1707 63.7995 13.131 62.8485 13.0515C61.9371 12.9721 61.0455 12.7933 60.1737 12.5152C59.3415 12.237 58.6282 11.8397 58.0338 11.3232C57.4394 10.8067 57.1422 10.0916 57.1422 9.17778C57.1422 8.62155 57.2611 8.04545 57.4988 7.44949C57.7762 6.8138 58.0932 6.19798 58.4499 5.60202C58.8462 5.00606 59.2622 4.44983 59.6981 3.93333C60.1737 3.3771 60.5897 2.90034 60.9464 2.50303C61.2238 2.22492 61.6399 1.98653 62.1946 1.78788C62.7494 1.58923 63.3636 1.45017 64.0373 1.37071C64.7506 1.29125 65.5035 1.23165 66.296 1.19192C67.0886 1.15219 67.8811 1.13232 68.6737 1.13232C69.6643 1.13232 70.5758 1.15219 71.4079 1.19192C72.2797 1.19192 72.993 1.19192 73.5478 1.19192C74.5385 1.19192 75.7471 1.17205 77.1737 1.13232C78.6399 1.05286 80.0268 0.953535 81.3345 0.834343C82.6818 0.715151 83.831 0.59596 84.782 0.476768C85.7727 0.317845 86.2879 0.158923 86.3275 0C86.5653 0.119192 86.8427 0.317845 87.1597 0.59596C87.5163 0.834343 87.873 1.07273 88.2296 1.31111C88.6259 1.54949 89.0023 1.76801 89.359 1.96667C89.7156 2.16532 89.993 2.26465 90.1911 2.26465C90.4289 2.26465 90.6072 2.18519 90.7261 2.02626C90.8846 1.82761 91.0035 1.60909 91.0827 1.37071C91.2016 1.13232 91.2809 0.893939 91.3205 0.655556C91.3601 0.377441 91.3799 0.158923 91.3799 0H91.796C92.6678 0 93.2424 0.258249 93.5198 0.774747C93.8368 1.29125 93.9953 1.90707 93.9953 2.62222C93.9953 2.78114 93.9755 2.9202 93.9359 3.03939C93.9359 3.15859 93.9359 3.27778 93.9359 3.39697C94.3322 3.31751 94.6096 3.13872 94.7681 2.86061C94.9662 2.54276 95.1247 2.22492 95.2436 1.90707C95.3625 1.58923 95.5012 1.31111 95.6597 1.07273C95.8578 0.834343 96.1748 0.715151 96.6107 0.715151C96.7692 0.715151 97.007 0.754882 97.324 0.834343H97.7401C98.6119 1.54949 99.2855 2.10572 99.7611 2.50303C100.276 2.90034 100.672 3.19832 100.95 3.39697C101.227 3.55589 101.406 3.65522 101.485 3.69495C101.564 3.73468 101.624 3.75455 101.663 3.75455C101.742 3.75455 101.881 3.77441 102.079 3.81414C102.317 3.85387 102.436 3.85387 102.436 3.81414C102.436 3.65522 102.337 3.51616 102.139 3.39697C101.98 3.23805 101.782 3.07912 101.544 2.9202C101.346 2.76128 101.148 2.58249 100.95 2.38384C100.791 2.18519 100.712 1.96667 100.712 1.72828C101.188 1.72828 101.564 1.66869 101.841 1.54949C102.119 1.39057 102.357 1.23165 102.555 1.07273C102.753 0.874074 102.951 0.695286 103.149 0.536364C103.387 0.377441 103.684 0.29798 104.041 0.29798C104.556 0.29798 104.952 0.377441 105.23 0.536364C105.507 0.695286 105.745 0.874074 105.943 1.07273C106.141 1.23165 106.319 1.39057 106.478 1.54949C106.636 1.70842 106.854 1.78788 107.132 1.78788C107.33 1.78788 107.488 1.76801 107.607 1.72828C107.766 1.68855 107.944 1.66869 108.142 1.66869C108.42 1.66869 108.598 1.78788 108.677 2.02626C108.756 2.26465 108.816 2.48316 108.855 2.68182C108.974 3.27778 109.073 3.73468 109.153 4.05253C109.232 4.37037 109.331 4.64848 109.45 4.88687C109.569 5.12525 109.707 5.3835 109.866 5.66162C110.064 5.9 110.322 6.25758 110.639 6.73434C110.876 7.05219 110.995 7.3899 110.995 7.74747ZM81.2156 11.6808C81.4534 11.363 81.3939 11.0054 81.0373 10.6081C80.6806 10.2108 80.2844 10.0121 79.8485 10.0121C79.373 10.0121 79.0559 10.2505 78.8974 10.7273C78.7786 11.1643 78.7191 11.5616 78.7191 11.9192C78.7984 12.1973 78.9172 12.4158 79.0758 12.5747C79.1946 12.7337 79.3333 12.8727 79.4918 12.9919C79.6503 13.1111 79.8287 13.1707 80.0268 13.1707C80.3438 13.1707 80.5816 13.1111 80.7401 12.9919C80.8986 12.833 81.0175 12.6542 81.0967 12.4556C81.176 12.2569 81.2156 11.9987 81.2156 11.6808Z" fill="white"/>
<path d="M66.0385 170.385C66.0385 171.577 65.9196 172.967 65.6818 174.557C65.4441 176.106 65.1072 177.755 64.6713 179.503C64.2751 181.211 63.7995 182.979 63.2448 184.807C62.7296 186.635 62.1748 188.403 61.5804 190.111C60.986 191.78 60.3718 193.349 59.7378 194.819C59.1434 196.249 58.5688 197.461 58.014 198.455C57.7762 198.852 57.3998 199.269 56.8846 199.706C56.4091 200.103 55.9138 200.54 55.3986 201.017C54.8834 201.454 54.4277 201.891 54.0315 202.328C53.6352 202.765 53.4371 203.182 53.4371 203.58C53.12 203.62 52.6247 203.719 51.951 203.878C51.2774 203.997 50.5641 204.176 49.8112 204.414C49.0979 204.613 48.4242 204.851 47.7902 205.129C47.1958 205.368 46.8392 205.606 46.7203 205.844C46.2844 206.679 46.007 207.235 45.8881 207.513C45.8089 207.791 45.7098 207.97 45.5909 208.049C45.472 208.089 45.2343 208.109 44.8776 208.109C44.5606 208.069 43.9266 208.149 42.9755 208.347C42.6189 208.427 42.1632 208.546 41.6084 208.705C41.0932 208.864 40.5385 209.023 39.9441 209.182C39.3893 209.341 38.8543 209.46 38.3392 209.539C37.824 209.659 37.4079 209.718 37.0909 209.718C36.2191 209.718 35.3671 209.579 34.535 209.301C33.7424 209.023 32.9103 208.884 32.0385 208.884C31.4837 208.884 30.9883 208.963 30.5524 209.122C29.0862 209.678 27.6795 210.076 26.3322 210.314C25.0245 210.553 23.5781 210.672 21.993 210.672L13.6119 209.539C12.9779 209.698 12.3438 209.798 11.7098 209.837C11.0758 209.917 10.4417 209.957 9.80769 209.957C9.01515 209.957 8.22261 209.917 7.43007 209.837C6.67716 209.758 5.90443 209.659 5.11189 209.539C4.99301 208.943 4.79487 208.387 4.51748 207.871C4.27972 207.314 4.04196 206.758 3.8042 206.202C3.56643 205.646 3.34848 205.09 3.15035 204.533C2.95221 203.937 2.85315 203.341 2.85315 202.745C2.85315 201.712 3.11072 200.977 3.62587 200.54C4.14103 200.064 4.79487 199.746 5.58741 199.587C6.37995 199.388 7.21212 199.249 8.08392 199.17C8.99534 199.05 9.84732 198.812 10.6399 198.455C11.4324 198.097 12.0862 197.541 12.6014 196.786C13.1165 196.031 13.3741 194.899 13.3741 193.389C13.3741 192.475 13.2949 191.561 13.1364 190.647C13.0175 189.734 12.859 188.82 12.6608 187.906C12.5023 186.953 12.3438 186.019 12.1853 185.105C12.0664 184.191 12.007 183.277 12.007 182.364C12.007 181.688 12.0664 181.033 12.1853 180.397C12.3042 179.722 12.3636 179.046 12.3636 178.371C12.3636 177.139 12.2646 175.927 12.0664 174.735C11.9079 173.504 11.8287 172.272 11.8287 171.04C11.8287 169.61 11.9079 168.2 12.0664 166.809C12.2249 165.379 12.3042 163.948 12.3042 162.518C12.3042 161.167 12.1655 159.856 11.8881 158.585C11.6503 157.274 11.5315 155.923 11.5315 154.532C11.5315 153.777 11.5513 153.023 11.5909 152.268C11.6305 151.513 11.6503 150.758 11.6503 150.003C11.6503 149.129 11.6107 148.295 11.5315 147.5C11.4522 146.666 11.2937 145.831 11.0559 144.997C10.7786 144.004 10.62 143.03 10.5804 142.077C10.5408 141.123 10.4219 140.269 10.2238 139.514C10.0256 138.72 9.64918 138.044 9.09441 137.488C8.53963 136.892 7.60839 136.455 6.3007 136.177C5.8648 136.097 5.52797 135.978 5.29021 135.819C5.09207 135.621 4.89394 135.442 4.6958 135.283C4.49767 135.084 4.24009 134.905 3.92308 134.746C3.64569 134.588 3.20979 134.468 2.61538 134.389C0.871795 134.151 0 133.177 0 131.469C0 130.515 0.178322 129.681 0.534965 128.966C0.891608 128.211 1.34732 127.535 1.9021 126.939C2.45688 126.343 3.0711 125.807 3.74476 125.33C4.45804 124.814 5.15151 124.297 5.82517 123.781C6.85548 122.986 7.82634 122.509 8.73776 122.351C9.64918 122.152 10.62 122.053 11.6503 122.053H14.2063C15.3555 122.053 16.4848 122.013 17.5944 121.933C18.7436 121.814 19.8928 121.755 21.042 121.755C21.7156 121.755 22.3893 121.794 23.0629 121.874C23.7762 121.953 24.4697 122.092 25.1434 122.291C25.5 122.41 25.8368 122.549 26.1538 122.708C26.5105 122.827 26.8671 122.887 27.2238 122.887C27.7786 122.887 28.2541 122.728 28.6503 122.41C29.0466 122.053 29.4033 121.874 29.7203 121.874C29.7995 121.874 29.8392 121.913 29.8392 121.993C29.8392 122.072 29.8193 122.172 29.7797 122.291C29.7797 122.37 29.7797 122.45 29.7797 122.529C29.7797 122.768 29.9382 122.887 30.2552 122.887C30.4534 122.887 30.5921 122.768 30.6713 122.529C30.7902 122.291 31.028 122.132 31.3846 122.053C31.662 122.172 31.88 122.311 32.0385 122.47C32.197 122.589 32.3357 122.708 32.4545 122.827C32.6131 122.946 32.7914 123.046 32.9895 123.125C33.2273 123.205 33.5245 123.244 33.8811 123.244C34.7133 123.244 35.5455 123.185 36.3776 123.066C37.2098 122.907 38.042 122.827 38.8741 122.827C39.9441 122.827 40.9347 123.006 41.8462 123.364C42.7576 123.721 43.6096 124.178 44.4021 124.734C45.2343 125.251 46.0268 125.847 46.7797 126.522C47.5326 127.198 48.2855 127.853 49.0385 128.489C49.5932 128.966 50.148 129.343 50.7028 129.621C51.2972 129.86 51.852 130.118 52.3671 130.396C52.8823 130.634 53.3776 130.952 53.8531 131.349C54.3287 131.707 54.7448 132.263 55.1014 133.018C55.4977 133.853 55.9534 134.667 56.4685 135.462C57.0233 136.216 57.5583 136.971 58.0734 137.726C58.6282 138.441 59.1632 139.196 59.6783 139.991C60.1935 140.746 60.6492 141.56 61.0455 142.434C62.0361 144.699 62.7296 147.083 63.1259 149.586C63.5618 152.049 63.9977 154.493 64.4336 156.916C64.6317 157.949 64.8496 159.002 65.0874 160.075C65.3252 161.108 65.4441 162.141 65.4441 163.174C65.4441 163.73 65.345 164.266 65.1469 164.783C64.9487 165.299 64.8496 165.836 64.8496 166.392C64.8496 166.749 64.9091 167.067 65.028 167.345C65.1469 167.624 65.2855 167.902 65.4441 168.18C65.6026 168.458 65.7413 168.776 65.8601 169.133C65.979 169.491 66.0385 169.908 66.0385 170.385ZM56.1119 166.392C56.1119 164.842 55.8939 163.333 55.458 161.863C55.0221 160.393 54.3485 159.022 53.4371 157.75C53.873 157.313 54.1503 156.797 54.2692 156.201C54.3881 155.605 54.4476 155.029 54.4476 154.473C54.4476 153.877 54.4079 153.281 54.3287 152.685C54.289 152.089 54.2692 151.513 54.2692 150.957C54.2692 150.639 54.1503 150.361 53.9126 150.122C53.7144 149.884 53.4767 149.665 53.1993 149.467C52.9615 149.228 52.704 149.01 52.4266 148.811C52.1492 148.573 51.951 148.295 51.8322 147.977C51.6737 147.579 51.5548 147.242 51.4755 146.964C51.4359 146.646 51.3963 146.348 51.3566 146.07C51.317 145.792 51.2378 145.494 51.1189 145.176C51 144.858 50.8019 144.48 50.5245 144.043C50.3263 143.726 50.1678 143.428 50.0489 143.149C49.9301 142.832 49.8706 142.454 49.8706 142.017C49.8706 141.62 49.9301 141.203 50.0489 140.766C49.8904 140.448 49.6329 140.19 49.2762 139.991C48.9196 139.753 48.5233 139.574 48.0874 139.455C47.6119 139.296 47.0769 139.176 46.4825 139.097C45.8881 139.097 45.2541 138.918 44.5804 138.561C43.9464 138.203 43.2727 137.806 42.5594 137.369C41.8462 136.932 41.1131 136.534 40.3601 136.177C39.6469 135.819 38.9138 135.64 38.1608 135.64C37.0117 135.64 35.8823 135.74 34.7727 135.938C33.6632 136.137 32.5338 136.316 31.3846 136.475C30.5128 136.594 29.5618 136.673 28.5315 136.713C27.5012 136.713 26.5303 136.812 25.6189 137.011C24.7471 137.21 24.014 137.587 23.4196 138.143C22.8252 138.66 22.528 139.494 22.528 140.646C22.528 142.037 22.6072 143.447 22.7657 144.878C22.9639 146.308 23.0629 147.778 23.0629 149.288C23.0629 152.427 22.9242 155.565 22.6469 158.704C22.4091 161.803 22.2902 164.942 22.2902 168.12C22.2902 169.59 22.3695 171.06 22.528 172.53C22.6865 173.961 22.7657 175.431 22.7657 176.94C22.7657 178.887 22.6072 180.814 22.2902 182.721C22.0128 184.628 21.8741 186.555 21.8741 188.502C21.8741 189.297 21.8741 190.151 21.8741 191.065C21.8741 191.978 21.9534 192.853 22.1119 193.687C22.2704 194.521 22.5676 195.276 23.0035 195.952C23.4394 196.627 24.0932 197.124 24.965 197.441C26.1935 197.878 27.4021 198.315 28.5909 198.753C29.8193 199.15 31.1072 199.348 32.4545 199.348C33.2471 199.348 34.0198 199.17 34.7727 198.812C35.5256 198.415 36.2984 198.097 37.0909 197.859C37.6061 197.7 38.1807 197.561 38.8147 197.441C39.4883 197.282 40.1422 197.124 40.7762 196.965C41.4103 196.766 42.0047 196.528 42.5594 196.249C43.1538 195.932 43.6492 195.554 44.0455 195.117C44.6399 194.442 45.2145 193.846 45.7692 193.329C46.324 192.813 47.0967 192.455 48.0874 192.257C48.5629 192.177 48.8601 192.018 48.979 191.78C49.1375 191.502 49.2366 191.204 49.2762 190.886C49.3555 190.528 49.4545 190.171 49.5734 189.813C49.6923 189.416 49.9499 189.078 50.3462 188.8C50.9802 188.323 51.4557 187.767 51.7727 187.131C52.1294 186.496 52.3869 185.82 52.5455 185.105C52.704 184.39 52.8228 183.675 52.9021 182.96C53.021 182.205 53.1795 181.47 53.3776 180.755C53.8135 179.165 54.3089 177.556 54.8636 175.927C55.458 174.298 55.7552 172.649 55.7552 170.981C55.7552 170.544 55.6562 170.166 55.458 169.848C55.2599 169.491 55.1608 169.094 55.1608 168.657C55.1608 168.418 55.2005 168.279 55.2797 168.239C55.3986 168.16 55.5175 168.08 55.6364 168.001C55.7552 167.882 55.8543 167.723 55.9336 167.524C56.0524 167.326 56.1119 166.948 56.1119 166.392Z" fill="white"/>
<path d="M137.545 182.602C137.545 183.158 137.446 183.695 137.248 184.211C137.09 184.688 136.892 185.105 136.654 185.463C136.456 185.82 136.258 186.118 136.059 186.357C135.901 186.595 135.822 186.734 135.822 186.774C135.822 187.171 135.941 187.588 136.178 188.025C136.456 188.462 136.594 188.939 136.594 189.456C136.594 189.694 136.495 189.853 136.297 189.932C136.139 190.012 135.96 190.052 135.762 190.052C135.406 190.052 135.108 190.012 134.871 189.932C134.91 190.687 134.97 191.422 135.049 192.137C135.168 192.853 135.227 193.588 135.227 194.342C135.227 195.495 135.108 196.249 134.871 196.607C134.672 196.925 134.455 197.124 134.217 197.203C133.979 197.282 133.741 197.382 133.503 197.501C133.305 197.58 133.206 197.938 133.206 198.574C133.206 198.931 132.949 199.388 132.434 199.944C131.958 200.501 131.364 201.057 130.65 201.613C129.977 202.169 129.263 202.646 128.51 203.043C127.797 203.441 127.223 203.639 126.787 203.639C126.668 203.639 126.529 203.6 126.371 203.52C126.371 203.838 126.39 204.176 126.43 204.533C126.47 204.891 126.49 205.229 126.49 205.546C126.49 206.063 126.331 206.421 126.014 206.619C125.697 206.778 125.34 206.937 124.944 207.096C124.35 207.374 123.735 207.791 123.101 208.347C122.467 208.864 121.814 209.4 121.14 209.957C120.466 210.513 119.773 210.99 119.059 211.387C118.386 211.824 117.672 212.042 116.92 212.042C116.286 212.042 115.691 211.883 115.136 211.566C114.621 211.248 114.007 211.089 113.294 211.089C112.66 211.089 112.125 211.168 111.689 211.327C111.253 211.526 110.837 211.725 110.441 211.923C110.084 212.162 109.707 212.36 109.311 212.519C108.915 212.718 108.459 212.817 107.944 212.817C106.914 212.817 105.883 212.539 104.853 211.983C103.823 211.466 102.832 211.049 101.881 210.731C101.326 210.533 100.732 210.374 100.098 210.255C99.4639 210.175 98.8496 210.076 98.2552 209.957C97.6608 209.837 97.0862 209.639 96.5315 209.361C96.0163 209.122 95.5606 208.765 95.1643 208.288C94.3322 207.255 93.3613 206.401 92.2517 205.725C91.1422 205.05 90.0128 204.414 88.8636 203.818C87.7144 203.222 86.6049 202.606 85.535 201.971C84.465 201.295 83.5338 200.421 82.7413 199.348C82.1468 198.514 81.4732 197.62 80.7203 196.667C79.9674 195.673 79.2541 194.64 78.5804 193.568C77.9464 192.495 77.4114 191.402 76.9755 190.29C76.5396 189.177 76.3217 188.085 76.3217 187.012C76.3217 186.218 76.4009 185.443 76.5594 184.688C76.7179 183.933 76.8765 183.178 77.035 182.423C77.2331 181.629 77.4114 180.854 77.5699 180.099C77.7284 179.344 77.8077 178.569 77.8077 177.775V177.119C77.8077 176.96 77.7482 176.781 77.6294 176.583C77.5105 176.384 77.3718 176.205 77.2133 176.046C77.0944 175.848 76.9557 175.689 76.7972 175.57C76.6783 175.411 76.5991 175.331 76.5594 175.331C76.4802 175.331 76.4406 175.351 76.4406 175.391C76.4802 175.033 76.5793 174.497 76.7378 173.782C76.9359 173.027 77.1538 172.272 77.3916 171.517C77.6294 170.723 77.8671 170.007 78.1049 169.372C78.3427 168.696 78.5606 168.259 78.7587 168.061C78.9965 167.862 79.2144 167.663 79.4126 167.465C79.6503 167.226 79.7692 166.928 79.7692 166.571C79.7692 166.213 79.7494 165.875 79.7098 165.558C79.6702 165.2 79.6503 164.842 79.6503 164.485C79.6503 164.008 79.7098 163.73 79.8287 163.65C79.9475 163.531 80.1061 163.472 80.3042 163.472C80.5023 163.472 80.7005 163.452 80.8986 163.412C81.0967 163.333 81.2949 163.114 81.493 162.757C81.8496 162.041 82.1865 161.386 82.5035 160.79C82.8601 160.154 83.2366 159.578 83.6329 159.062C84.0291 158.545 84.4848 158.068 85 157.631C85.5151 157.194 86.1492 156.777 86.9021 156.38C87.5361 156.022 88.1503 155.585 88.7448 155.069C89.3788 154.552 90.0128 154.036 90.6468 153.519C91.2809 153.003 91.9149 152.566 92.5489 152.208C93.2226 151.85 93.9359 151.672 94.6888 151.672C95.7587 151.672 96.789 151.493 97.7797 151.135C98.81 150.738 99.8403 150.44 100.871 150.241C102.495 150.003 104.1 149.785 105.685 149.586C107.31 149.347 108.955 149.228 110.619 149.228C111.53 149.228 112.64 149.387 113.948 149.705C115.255 149.983 116.583 150.361 117.93 150.837C119.317 151.314 120.605 151.85 121.794 152.446C123.022 153.042 123.993 153.638 124.706 154.234V154.413C124.706 154.969 124.607 155.545 124.409 156.141C124.211 156.698 124.112 157.254 124.112 157.81C124.112 157.89 124.112 157.969 124.112 158.048C124.112 158.128 124.152 158.168 124.231 158.168C124.904 158.168 125.538 158.088 126.133 157.929C126.767 157.731 127.421 157.631 128.094 157.631C128.174 158.307 128.471 158.764 128.986 159.002C129.501 159.24 130.016 159.459 130.531 159.658C131.007 159.896 131.443 160.333 131.839 160.969C132.275 161.565 132.671 162.26 133.028 163.055C133.385 163.809 133.721 164.564 134.038 165.319C134.395 166.074 134.732 166.69 135.049 167.167C135.366 167.643 135.643 168.22 135.881 168.895C136.159 169.531 136.376 170.206 136.535 170.921C136.733 171.636 136.872 172.352 136.951 173.067C137.03 173.742 137.07 174.378 137.07 174.974C137.07 175.768 136.911 176.444 136.594 177C136.317 177.516 136 177.993 135.643 178.43C135.287 178.828 134.95 179.225 134.633 179.622C134.355 179.98 134.217 180.397 134.217 180.874C134.217 181.152 134.276 181.41 134.395 181.648C134.514 181.887 134.672 182.105 134.871 182.304C134.95 182.264 135.108 182.225 135.346 182.185C135.624 182.145 135.762 182.026 135.762 181.827V181.768C135.762 181.45 135.624 181.152 135.346 180.874C135.108 180.596 134.99 180.258 134.99 179.861C134.99 179.781 135.029 179.662 135.108 179.503C135.188 179.304 135.287 179.205 135.406 179.205C135.643 179.205 135.881 179.364 136.119 179.682C136.357 179.96 136.575 180.278 136.773 180.635C137.01 180.953 137.189 181.231 137.308 181.47C137.427 181.708 137.486 181.788 137.486 181.708L137.427 181.648C137.466 181.847 137.486 182.026 137.486 182.185C137.526 182.304 137.545 182.443 137.545 182.602ZM131.601 183.079C131.601 182.443 131.364 182.066 130.888 181.946C130.413 181.788 129.878 181.688 129.283 181.648C128.689 181.609 128.094 181.549 127.5 181.47C126.945 181.39 126.569 181.092 126.371 180.576V179.98C126.371 179.106 126.252 178.093 126.014 176.94C125.816 175.748 125.558 174.557 125.241 173.365C124.924 172.133 124.587 170.941 124.231 169.789C123.874 168.597 123.537 167.544 123.22 166.63C122.903 165.716 122.646 164.981 122.448 164.425C122.249 163.869 122.15 163.591 122.15 163.591C121.833 163.67 121.576 163.71 121.378 163.71C120.704 163.71 120.11 163.571 119.594 163.293C119.119 163.015 118.564 162.717 117.93 162.399C117.336 162.081 116.583 161.783 115.671 161.505C114.8 161.227 113.631 161.088 112.164 161.088C110.54 161.088 108.935 160.989 107.35 160.79C105.765 160.552 104.16 160.432 102.535 160.432C100.316 160.432 98.2354 160.949 96.2937 161.982C94.352 162.975 92.648 164.306 91.1818 165.975C89.7156 167.604 88.5664 169.451 87.7343 171.517C86.9021 173.583 86.486 175.669 86.486 177.775C86.486 178.649 86.5058 179.682 86.5455 180.874C86.5851 182.026 86.6841 183.198 86.8427 184.39C87.0012 185.542 87.2587 186.635 87.6154 187.668C87.972 188.661 88.4674 189.416 89.1014 189.932V191.601C89.2599 191.76 89.458 191.859 89.6958 191.899C89.9732 191.899 90.2308 191.899 90.4685 191.899C90.7459 191.899 90.9837 191.939 91.1818 192.018C91.3799 192.058 91.5385 192.217 91.6573 192.495C92.1725 193.965 92.8461 195.097 93.6783 195.892C94.5105 196.647 95.4021 197.302 96.3531 197.859C97.3042 198.375 98.2552 198.911 99.2063 199.468C100.157 199.984 101.029 200.759 101.822 201.792C102.139 201.752 102.476 201.732 102.832 201.732C103.189 201.693 103.526 201.673 103.843 201.673C105.111 201.673 106.339 201.772 107.528 201.971C108.756 202.13 109.985 202.209 111.213 202.209C112.521 202.209 113.69 201.871 114.72 201.196C115.79 200.521 116.702 199.666 117.455 198.633C117.93 197.958 118.366 197.382 118.762 196.905C119.159 196.428 119.555 195.991 119.951 195.594C120.387 195.157 120.843 194.76 121.318 194.402C121.833 194.005 122.428 193.568 123.101 193.091C123.339 192.932 123.617 192.733 123.934 192.495C124.29 192.257 124.627 191.998 124.944 191.72C125.301 191.402 125.598 191.104 125.836 190.826C126.073 190.508 126.192 190.21 126.192 189.932C126.192 189.575 126.133 189.217 126.014 188.86C125.935 188.502 125.895 188.144 125.895 187.787C125.895 187.39 125.955 186.913 126.073 186.357C126.192 185.8 126.371 185.264 126.608 184.747C126.886 184.231 127.203 183.814 127.559 183.496C127.956 183.138 128.431 182.96 128.986 182.96C129.422 182.96 129.858 183.059 130.294 183.258C130.73 183.456 131.126 183.695 131.483 183.973C131.562 183.575 131.601 183.277 131.601 183.079Z" fill="white"/>
<path d="M201.385 216.81C201.385 215.658 201.087 214.764 200.493 214.128C199.899 213.493 199.146 212.996 198.234 212.638C197.362 212.281 196.411 212.003 195.381 211.804C194.39 211.645 193.479 211.446 192.647 211.208L192.587 211.148C190.408 210.513 188.228 209.937 186.049 209.42C183.869 208.943 181.65 208.705 179.392 208.705C179.312 208.705 179.174 208.685 178.976 208.645C178.777 208.566 178.341 208.308 177.668 207.871C177.351 207.871 177.073 207.95 176.836 208.109C176.598 208.268 176.36 208.447 176.122 208.645C175.924 208.844 175.706 209.023 175.469 209.182C175.231 209.341 174.973 209.42 174.696 209.42C174.26 209.42 173.844 209.321 173.448 209.122C173.051 208.963 172.635 208.884 172.199 208.884C171.327 208.884 170.476 209.003 169.643 209.241C168.811 209.52 167.979 209.798 167.147 210.076C166.354 210.394 165.542 210.672 164.71 210.91C163.878 211.188 163.026 211.327 162.154 211.327C161.639 211.327 161.024 211.566 160.311 212.042C159.638 212.519 158.984 213.095 158.35 213.771C157.716 214.446 157.181 215.141 156.745 215.857C156.309 216.611 156.091 217.247 156.091 217.764C156.091 218.995 156.249 220.128 156.566 221.161C156.923 222.194 157.438 223.088 158.112 223.842C158.786 224.597 159.598 225.193 160.549 225.63C161.54 226.067 162.689 226.286 163.996 226.286C164.432 226.286 164.829 226.306 165.185 226.345C165.582 226.425 165.998 226.624 166.434 226.941C167.821 228.014 169.346 228.63 171.01 228.789C172.714 228.988 174.399 229.087 176.063 229.087C177.093 229.087 178.064 228.868 178.976 228.431C179.927 227.994 180.897 227.657 181.888 227.418C182.879 227.22 183.869 227.12 184.86 227.12C185.89 227.16 186.881 226.961 187.832 226.524C188.506 226.206 189.041 225.889 189.437 225.571C189.873 225.293 190.487 225.154 191.28 225.154C191.953 225.154 192.587 225.213 193.182 225.332C193.816 225.452 194.47 225.511 195.143 225.511C195.817 225.511 196.431 225.352 196.986 225.034C197.58 224.756 198.076 224.359 198.472 223.842C198.868 223.366 199.165 222.809 199.364 222.174C199.601 221.578 199.72 220.962 199.72 220.326L199.661 219.73C200.414 219.73 200.889 219.393 201.087 218.717C201.286 218.042 201.385 217.406 201.385 216.81ZM210.895 218.777C210.895 220.048 210.459 221.379 209.587 222.77C208.755 224.2 207.745 225.511 206.556 226.703C205.407 227.895 204.258 228.868 203.108 229.623C201.959 230.418 201.087 230.815 200.493 230.815C199.463 230.815 198.452 230.954 197.462 231.232C196.51 231.55 195.579 231.928 194.668 232.365C193.796 232.802 192.488 233.239 190.745 233.676C189.041 234.113 187.218 234.49 185.276 234.808C183.334 235.166 181.472 235.444 179.689 235.642C177.906 235.881 176.519 236 175.528 236C174.379 236 173.15 235.96 171.843 235.881C170.575 235.801 169.287 235.662 167.979 235.464C166.671 235.305 165.383 235.066 164.115 234.748C162.887 234.47 161.738 234.113 160.668 233.676C160.113 233.437 159.657 233.199 159.301 232.961C158.984 232.722 158.667 232.504 158.35 232.305C158.033 232.106 157.676 231.947 157.28 231.828C156.883 231.709 156.329 231.649 155.615 231.649C154.783 231.649 154.11 231.491 153.594 231.173C153.079 230.895 152.643 230.517 152.287 230.04C151.97 229.564 151.653 229.027 151.336 228.431C151.058 227.875 150.721 227.319 150.325 226.763C149.453 225.61 148.8 224.498 148.364 223.425C147.928 222.392 147.71 221.141 147.71 219.671C147.71 217.644 148.126 215.678 148.958 213.771C149.79 211.903 150.88 210.215 152.227 208.705C152.227 207.513 152.069 206.341 151.752 205.189C151.474 204.037 151.157 202.885 150.801 201.732C150.484 200.58 150.167 199.428 149.85 198.276C149.572 197.124 149.434 195.952 149.434 194.76C149.434 193.965 149.533 193.329 149.731 192.853C149.969 192.336 150.206 191.919 150.444 191.601C150.682 191.243 150.9 190.926 151.098 190.647C151.336 190.33 151.455 189.972 151.455 189.575C151.455 189.456 151.732 189.118 152.287 188.562C152.881 188.005 153.515 187.37 154.189 186.655C154.902 185.939 155.536 185.185 156.091 184.39C156.685 183.595 156.983 182.9 156.983 182.304C156.983 181.788 156.765 181.311 156.329 180.874C155.932 180.397 155.496 179.94 155.021 179.503C154.545 179.026 154.09 178.549 153.654 178.073C153.258 177.556 153.059 177 153.059 176.404C153.059 175.53 153.119 174.656 153.238 173.782C153.396 172.868 153.555 171.994 153.713 171.16C153.911 170.286 154.07 169.411 154.189 168.537C154.347 167.663 154.427 166.769 154.427 165.856C154.427 165.657 154.387 165.498 154.308 165.379C154.228 165.22 154.189 165.041 154.189 164.842C154.189 164.405 154.288 164.028 154.486 163.71C154.724 163.353 154.981 163.055 155.259 162.816C155.536 162.538 155.774 162.28 155.972 162.041C156.21 161.803 156.329 161.565 156.329 161.326C156.329 161.008 156.21 160.71 155.972 160.432C155.734 160.114 155.615 159.677 155.615 159.121V158.585C156.249 158.148 156.765 157.631 157.161 157.035C157.597 156.439 158.092 155.903 158.647 155.426C159.439 154.751 160.371 154.095 161.441 153.46C162.55 152.784 163.561 152.208 164.472 151.731C164.789 151.771 165.007 151.93 165.126 152.208C165.245 152.486 165.463 152.625 165.78 152.625C166.017 152.625 166.394 152.506 166.909 152.268C167.424 151.99 168.019 151.692 168.692 151.374C169.406 151.016 170.139 150.718 170.892 150.48C171.684 150.202 172.457 150.063 173.21 150.063C173.844 150.063 174.478 150.122 175.112 150.241C175.746 150.321 176.38 150.4 177.014 150.48C178.282 150.639 179.411 150.738 180.402 150.778C181.393 150.818 182.304 150.957 183.136 151.195C184.008 151.433 184.801 151.85 185.514 152.446C186.267 153.042 187.04 153.956 187.832 155.188C188.228 154.83 188.684 154.512 189.199 154.234C189.714 153.956 190.21 153.678 190.685 153.4C191.161 153.082 191.597 152.744 191.993 152.387C192.389 151.99 192.686 151.513 192.885 150.957C193.281 151.155 193.677 151.255 194.073 151.255C194.39 151.255 194.727 151.135 195.084 150.897C195.441 150.659 195.857 150.42 196.332 150.182C196.808 149.904 197.362 149.645 197.996 149.407C198.631 149.169 199.383 149.049 200.255 149.049C201.603 149.049 202.91 149.189 204.178 149.467C205.486 149.745 206.814 149.943 208.161 150.063C208.24 150.976 208.418 151.85 208.696 152.685C208.973 153.479 209.27 154.294 209.587 155.128C209.904 155.963 210.182 156.797 210.42 157.631C210.697 158.466 210.836 159.32 210.836 160.194C210.836 160.79 210.519 161.465 209.885 162.22C209.29 162.975 208.537 163.69 207.626 164.366C206.754 165.001 205.803 165.538 204.773 165.975C203.782 166.412 202.89 166.63 202.098 166.63C201.979 166.63 201.84 166.591 201.682 166.511C201.563 166.432 201.503 166.312 201.503 166.154C201.503 165.756 201.622 165.419 201.86 165.14C202.138 164.862 202.276 164.525 202.276 164.127C201.761 163.849 201.444 163.69 201.325 163.65C201.246 163.611 201.186 163.591 201.147 163.591C200.473 163.591 199.938 163.77 199.542 164.127C199.146 164.445 198.848 164.902 198.65 165.498C198.452 166.054 198.314 166.69 198.234 167.405C198.155 168.08 198.115 168.776 198.115 169.491C198.115 170.286 198.135 171.04 198.175 171.756C198.214 172.431 198.234 173.007 198.234 173.484C198.234 174.477 198.175 175.371 198.056 176.166C197.937 176.921 197.501 177.656 196.748 178.371C196.035 179.046 195.48 179.801 195.084 180.635C194.688 181.43 194.291 182.264 193.895 183.138C193.499 184.012 193.043 184.887 192.528 185.761C192.052 186.635 191.359 187.429 190.448 188.144C189.972 188.621 189.576 188.979 189.259 189.217C188.981 189.456 188.763 189.634 188.605 189.754C188.486 189.873 188.387 189.952 188.308 189.992C188.268 189.992 188.228 189.992 188.189 189.992C187.119 189.992 186.089 190.151 185.098 190.469C184.107 190.747 183.117 191.065 182.126 191.422C181.135 191.74 180.145 192.058 179.154 192.376C178.163 192.654 177.133 192.793 176.063 192.793C174.438 192.793 172.833 192.614 171.248 192.257C169.703 191.859 168.098 191.661 166.434 191.661C165.641 191.661 164.749 191.82 163.759 192.137C162.768 192.455 161.837 192.912 160.965 193.508C160.133 194.064 159.42 194.74 158.825 195.534C158.231 196.289 157.934 197.124 157.934 198.037C157.934 198.594 158.052 199.17 158.29 199.766C158.528 200.362 158.845 200.898 159.241 201.375C159.638 201.852 160.093 202.249 160.608 202.567C161.163 202.845 161.738 202.984 162.332 202.984C163.006 202.984 163.62 202.825 164.175 202.507C164.769 202.189 165.403 202.03 166.077 202.03C166.552 202.03 166.929 202.169 167.206 202.447C167.523 202.686 167.86 202.825 168.217 202.865C168.217 202.626 168.296 202.408 168.455 202.209C168.653 202.01 168.89 201.911 169.168 201.911C169.406 201.911 169.643 202.05 169.881 202.328C170.119 202.606 170.396 202.785 170.713 202.865C170.911 202.547 171.189 202.328 171.545 202.209C171.902 202.05 172.259 201.971 172.615 201.971C173.091 201.971 173.527 202.05 173.923 202.209C174.359 202.368 174.775 202.567 175.171 202.805C175.568 203.004 175.944 203.182 176.301 203.341C176.657 203.5 177.014 203.58 177.371 203.58C177.688 203.58 177.965 203.5 178.203 203.341C178.441 203.143 178.698 202.924 178.976 202.686C179.253 202.447 179.57 202.249 179.927 202.09C180.283 201.891 180.739 201.792 181.294 201.792C181.73 201.792 182.126 201.832 182.483 201.911C182.879 201.951 183.295 201.971 183.731 201.971C184.325 201.971 184.88 201.832 185.395 201.554C185.95 201.236 186.524 201.077 187.119 201.077C187.436 201.077 187.733 201.156 188.01 201.315C188.327 201.474 188.704 201.653 189.14 201.852C189.576 202.05 190.091 202.229 190.685 202.388C191.319 202.547 192.092 202.626 193.003 202.626C193.638 202.626 194.272 202.726 194.906 202.924C195.54 203.123 196.154 203.361 196.748 203.639C197.343 203.918 197.937 204.196 198.531 204.474C199.165 204.752 199.78 204.97 200.374 205.129C201.087 205.328 201.622 205.527 201.979 205.725C202.336 205.924 202.613 206.142 202.811 206.381C203.049 206.619 203.287 206.897 203.524 207.215C203.762 207.533 204.139 207.891 204.654 208.288C205.209 208.765 205.763 209.122 206.318 209.361C206.873 209.639 207.388 209.917 207.864 210.195C208.339 210.473 208.735 210.831 209.052 211.268C209.409 211.705 209.686 212.36 209.885 213.234C210.083 214.148 210.301 215.062 210.538 215.976C210.776 216.89 210.895 217.823 210.895 218.777ZM195.5 159.002C195.5 158.366 195.163 157.85 194.49 157.453C193.816 157.055 193.202 156.857 192.647 156.857C192.33 156.857 192.033 156.936 191.755 157.095C191.478 157.214 191.3 157.433 191.22 157.75C191.537 157.83 191.815 157.969 192.052 158.168C192.29 158.366 192.508 158.585 192.706 158.823C192.944 159.022 193.182 159.201 193.42 159.36C193.697 159.519 194.014 159.598 194.371 159.598C194.727 159.598 195.084 159.538 195.441 159.419L195.5 159.002ZM189.556 171.517C189.556 170.643 189.397 169.65 189.08 168.537C188.803 167.425 188.387 166.372 187.832 165.379C187.277 164.346 186.624 163.432 185.871 162.637C185.118 161.843 184.305 161.306 183.434 161.028L176.538 158.585C176.182 158.585 175.904 158.625 175.706 158.704C175.508 158.783 175.31 158.883 175.112 159.002C174.914 159.081 174.716 159.161 174.517 159.24C174.319 159.32 174.042 159.36 173.685 159.36C173.17 159.36 172.695 159.26 172.259 159.062C171.823 158.863 171.367 158.764 170.892 158.764C170.456 158.764 170.099 158.903 169.822 159.181C169.544 159.459 169.267 159.737 168.99 160.015C168.712 160.293 168.455 160.492 168.217 160.611C168.019 160.73 167.801 160.83 167.563 160.909C167.365 160.989 167.147 161.088 166.909 161.207C166.711 161.287 166.493 161.406 166.255 161.565C165.938 161.763 165.562 162.339 165.126 163.293C164.69 164.246 164.274 165.279 163.878 166.392C163.481 167.504 163.145 168.577 162.867 169.61C162.59 170.643 162.451 171.338 162.451 171.696C162.451 171.855 162.57 172.212 162.808 172.769C163.045 173.285 163.343 173.921 163.699 174.676C164.096 175.431 164.512 176.225 164.948 177.06C165.423 177.894 165.859 178.689 166.255 179.443C166.691 180.198 167.068 180.874 167.385 181.47C167.741 182.026 167.999 182.383 168.157 182.542C168.672 183.218 169.227 183.675 169.822 183.913C170.456 184.112 171.11 184.211 171.783 184.211C172.338 184.211 172.913 184.171 173.507 184.092C174.141 184.012 174.755 183.973 175.35 183.973C175.825 183.973 176.281 184.032 176.717 184.152C177.153 184.231 177.608 184.271 178.084 184.271C179.392 184.271 180.719 183.834 182.066 182.96C183.414 182.086 184.642 181.013 185.752 179.741C186.861 178.47 187.773 177.099 188.486 175.629C189.199 174.12 189.556 172.749 189.556 171.517Z" fill="white"/>
<path d="M272 190.469C272 190.985 271.901 191.502 271.703 192.018C271.544 192.495 271.346 192.992 271.108 193.508C270.871 193.985 270.633 194.462 270.395 194.938C270.197 195.415 270.058 195.912 269.979 196.428C269.781 197.501 269.365 198.474 268.731 199.348C268.136 200.183 267.443 200.977 266.65 201.732C265.858 202.487 265.026 203.222 264.154 203.937C263.282 204.613 262.509 205.308 261.836 206.023C261.241 206.619 260.607 206.917 259.934 206.917C259.537 206.917 259.161 206.877 258.804 206.798C258.448 206.719 258.071 206.679 257.675 206.679C257.12 206.679 256.664 206.778 256.308 206.977C255.991 207.175 255.674 207.394 255.357 207.632C255.079 207.831 254.723 208.03 254.287 208.228C253.89 208.427 253.336 208.526 252.622 208.526C252.107 208.526 251.612 208.665 251.136 208.943C250.661 209.222 250.185 209.361 249.71 209.361C249.036 209.361 248.244 209.162 247.332 208.765C246.46 208.367 245.49 208.169 244.42 208.169C243.746 208.169 243.072 208.208 242.399 208.288C241.725 208.328 241.051 208.347 240.378 208.347C239.783 208.347 239.189 208.268 238.594 208.109C238.04 207.91 237.485 207.712 236.93 207.513C236.415 207.275 235.88 207.076 235.325 206.917C234.77 206.719 234.196 206.619 233.601 206.619C232.413 206.619 231.402 206.917 230.57 207.513C229.738 208.109 228.985 208.765 228.311 209.48C227.677 210.235 227.023 210.91 226.35 211.506C225.716 212.102 224.983 212.4 224.15 212.4C223.397 212.4 222.882 212.261 222.605 211.983C222.367 211.744 222.209 211.446 222.129 211.089C222.09 210.731 222.05 210.334 222.01 209.897C221.971 209.5 221.793 209.142 221.476 208.824C220.881 208.189 220.485 207.612 220.287 207.096C220.089 206.54 219.99 205.825 219.99 204.95C219.99 203.043 220.148 201.196 220.465 199.408C220.822 197.58 221 195.713 221 193.806C221 193.131 220.921 192.475 220.762 191.839C220.604 191.204 220.406 190.628 220.168 190.111C219.97 189.595 219.791 189.158 219.633 188.8C219.474 188.442 219.395 188.184 219.395 188.025C219.395 187.668 219.494 187.29 219.692 186.893C219.89 186.496 220.108 186.138 220.346 185.82C220.624 185.463 220.901 185.185 221.178 184.986C221.495 184.747 221.753 184.628 221.951 184.628C222.347 184.628 222.684 184.728 222.962 184.926C223.279 185.125 223.576 185.343 223.853 185.582C224.17 185.78 224.467 185.979 224.745 186.178C225.062 186.376 225.438 186.476 225.874 186.476C225.953 186.476 226.013 186.476 226.052 186.476C226.092 186.436 226.152 186.416 226.231 186.416C226.786 187.33 227.221 188.323 227.538 189.396C227.855 190.429 228.172 191.462 228.49 192.495C228.846 193.488 229.262 194.462 229.738 195.415C230.253 196.329 230.966 197.143 231.878 197.859C232.115 198.057 232.393 198.276 232.71 198.514C233.027 198.753 233.344 198.991 233.661 199.229C234.017 199.468 234.354 199.666 234.671 199.825C235.028 199.984 235.345 200.064 235.622 200.064C236.058 200.064 236.474 200.024 236.871 199.944C237.307 199.865 237.742 199.825 238.178 199.825C238.773 199.825 239.07 200.024 239.07 200.421C239.07 200.501 239.03 200.66 238.951 200.898H240.08C241.586 200.898 243.092 200.719 244.598 200.362C246.104 200.004 247.629 199.825 249.175 199.825C249.888 199.825 250.601 199.905 251.315 200.064C252.068 200.183 252.741 200.461 253.336 200.898C254.089 200.54 254.723 200.083 255.238 199.527C255.753 198.971 256.268 198.435 256.783 197.918C257.298 197.362 257.873 196.885 258.507 196.488C259.141 196.051 259.953 195.812 260.944 195.773C261.142 195.534 261.241 195.256 261.241 194.938C261.281 194.621 261.301 194.323 261.301 194.044C261.301 193.727 261.321 193.429 261.36 193.15C261.439 192.872 261.598 192.614 261.836 192.376C262.232 192.018 262.529 191.661 262.727 191.303C262.965 190.906 263.084 190.429 263.084 189.873C263.084 188.8 262.787 187.807 262.192 186.893C261.598 185.939 260.825 185.085 259.874 184.33C258.963 183.536 257.893 182.84 256.664 182.244C255.476 181.609 254.247 181.072 252.979 180.635C251.751 180.198 250.562 179.88 249.413 179.682C248.263 179.443 247.253 179.324 246.381 179.324C245.39 179.324 244.4 179.424 243.409 179.622C242.458 179.781 241.527 180.079 240.615 180.516C240.615 179.642 240.417 179.066 240.021 178.788C239.625 178.51 239.149 178.311 238.594 178.192C238.04 178.073 237.465 177.914 236.871 177.715C236.316 177.477 235.88 176.98 235.563 176.225C234.889 177.099 234.037 177.735 233.007 178.132C232.016 178.53 231.006 178.728 229.976 178.728C228.945 178.728 227.994 178.53 227.122 178.132C226.251 177.735 225.458 177.199 224.745 176.523C224.071 175.848 223.516 175.073 223.08 174.199C222.684 173.325 222.466 172.391 222.427 171.398C222.387 170.723 222.248 170.127 222.01 169.61C221.773 169.094 221.515 168.597 221.238 168.12C220.96 167.643 220.703 167.147 220.465 166.63C220.267 166.114 220.168 165.498 220.168 164.783C220.168 162.995 220.247 161.604 220.406 160.611C220.604 159.578 220.841 158.803 221.119 158.287C221.396 157.731 221.693 157.353 222.01 157.155C222.367 156.916 222.724 156.698 223.08 156.499C223.437 156.261 223.774 155.943 224.091 155.545C224.408 155.148 224.665 154.512 224.864 153.638C224.983 153.042 225.161 152.645 225.399 152.446C225.636 152.248 226.052 152.109 226.647 152.029C227.162 151.95 227.499 151.831 227.657 151.672C227.816 151.513 227.915 151.334 227.955 151.135C228.034 150.937 228.113 150.738 228.192 150.539C228.272 150.301 228.47 150.082 228.787 149.884C229.619 149.328 230.431 148.99 231.224 148.871C232.056 148.712 232.908 148.632 233.78 148.632C234.295 148.632 234.79 148.652 235.266 148.692C235.741 148.692 236.256 148.692 236.811 148.692C238.476 148.692 240.1 148.612 241.685 148.454C243.27 148.295 244.895 148.215 246.559 148.215C247.827 148.215 248.977 148.354 250.007 148.632C251.077 148.871 252.008 149.149 252.801 149.467C253.593 149.785 254.267 150.082 254.822 150.361C255.416 150.599 255.892 150.718 256.248 150.718C256.922 150.718 257.556 150.599 258.15 150.361C258.784 150.082 259.438 149.924 260.112 149.884C260.429 150.162 260.786 150.42 261.182 150.659C261.618 150.857 262.054 150.957 262.489 150.957C262.807 150.957 263.044 150.857 263.203 150.659C263.361 150.46 263.46 150.202 263.5 149.884C264.055 150.043 264.59 150.321 265.105 150.718C265.62 151.115 266.076 151.592 266.472 152.148C266.908 152.665 267.245 153.241 267.483 153.877C267.72 154.473 267.839 155.049 267.839 155.605C267.839 157.075 267.72 158.545 267.483 160.015C267.284 161.445 267.185 162.896 267.185 164.366C267.185 165.875 267.383 167.286 267.78 168.597C267.225 169.034 266.611 169.431 265.937 169.789C265.303 170.107 264.768 170.564 264.332 171.16L264.273 171.1C263.995 170.862 263.639 170.564 263.203 170.206C262.807 169.809 262.371 169.431 261.895 169.074C261.459 168.716 261.023 168.418 260.587 168.18C260.152 167.902 259.755 167.763 259.399 167.763H259.28C259.082 167.643 258.903 167.504 258.745 167.345C258.626 167.187 258.566 166.988 258.566 166.749C258.566 166.352 258.685 165.995 258.923 165.677C259.161 165.359 259.28 165.001 259.28 164.604C259.28 164.485 259.101 164.207 258.745 163.77C258.388 163.333 257.972 162.896 257.496 162.459C257.061 161.982 256.625 161.565 256.189 161.207C255.753 160.81 255.436 160.591 255.238 160.552C254.841 160.472 254.425 160.333 253.989 160.134C253.554 159.936 253.118 159.737 252.682 159.538C252.246 159.34 251.83 159.161 251.434 159.002C251.077 158.843 250.78 158.764 250.542 158.764C250.027 158.764 249.512 158.843 248.996 159.002C248.481 159.121 247.946 159.201 247.392 159.24H247.451L244.776 158.942C243.469 158.783 242.181 158.466 240.913 157.989C239.645 157.512 238.337 157.274 236.99 157.274C235.801 157.274 234.929 157.552 234.374 158.108C233.819 158.664 233.364 159.3 233.007 160.015C232.65 160.691 232.294 161.306 231.937 161.863C231.58 162.419 230.986 162.697 230.154 162.697C229.916 162.697 229.738 162.677 229.619 162.637C230.015 163.909 230.372 164.981 230.689 165.856C231.045 166.73 231.462 167.524 231.937 168.239C232.413 168.915 233.007 169.57 233.72 170.206C234.434 170.802 235.345 171.458 236.455 172.173C236.573 172.252 236.732 172.391 236.93 172.59C237.168 172.789 237.406 173.007 237.643 173.245C237.881 173.444 238.099 173.623 238.297 173.782C238.535 173.941 238.713 174.02 238.832 174.02C239.506 174.02 240.14 173.861 240.734 173.543C241.368 173.226 242.022 173.067 242.696 173.067C243.171 173.067 243.607 173.186 244.003 173.424C244.439 173.623 244.895 173.722 245.371 173.722C245.846 173.722 246.302 173.643 246.738 173.484C247.174 173.285 247.649 173.186 248.164 173.186C248.362 173.186 248.561 173.206 248.759 173.245C248.996 173.285 249.214 173.325 249.413 173.365C250.601 173.682 251.79 173.841 252.979 173.841C254.168 173.802 255.376 173.802 256.605 173.841C257.477 173.841 258.348 174 259.22 174.318C260.132 174.636 261.003 175.053 261.836 175.57C262.668 176.046 263.441 176.603 264.154 177.238C264.867 177.874 265.481 178.53 265.996 179.205C266.393 179.761 266.829 180.258 267.304 180.695C267.78 181.132 268.235 181.589 268.671 182.066C269.147 182.503 269.563 182.979 269.92 183.496C270.276 184.012 270.534 184.608 270.692 185.284C270.89 186.078 271.148 186.953 271.465 187.906C271.822 188.86 272 189.714 272 190.469Z" fill="white"/>
<path d="M202.296 96.8236L194.757 89.8729C167.982 65.2822 150.305 49.0113 150.305 29.1598C150.305 12.8889 162.887 0.198653 178.9 0.198653C187.947 0.198653 196.629 4.46384 202.296 11.1512C207.963 4.46384 216.645 0.198653 225.692 0.198653C241.705 0.198653 254.287 12.8889 254.287 29.1598C254.287 49.0113 236.61 65.2822 209.835 89.8729L202.296 96.8236Z" fill="#D32121"/>
</svg>
